<svg xmlns="http://www.w3.org/2000/svg" viewBox="0 0 42.24 29.03"><defs><style>.cls-1{fill:#fbb03b;}</style></defs><g id="Layer_2" data-name="Layer 2"><g id="Layer_1-2" data-name="Layer 1"><path class="cls-1" d="M12.83,9.52,5.77,13.64,7,16.57,14,12.25ZM9,0H0L5.68,13.43l7-4.31ZM22.17,16.25l0-.05-.25.16-11.89,7.4.38.91h8.18L20,21.33,17.11,23l3-1.83h0l1.61-3.81.36-.85-.2.12-6.2,3.62,6.28-3.87ZM20.87,0l-2.3,5.48L27.46,0ZM18.18,6.4l-1.82,4.35,11-6.87L29,.08Z"/><path class="cls-1" d="M31.13,14.86l-.63.36-.56.33v4.89l.56-.34L39,14.86Zm9.12,0L30.5,20.54l-.56.33v.26h8.47l2.39-1.48V14.86Zm-.74,6.27H40.8v-.75Zm-9.57-6.27v.26l.43-.26Zm2.25-4.23h5l5-3.09V4.76Zm6.19,0h3.86V8.37Zm2.2-6.28c-5.2,1.49-15.76,6.71-18.39,11.44a3,3,0,0,0-.25.57.07.07,0,0,0,0,.05l.24-.16,8.33-5.13v-.49h.8L41.55,4.31A3.59,3.59,0,0,0,40.58,4.35ZM22.05,16.54l-.2.12a7.17,7.17,0,0,0-.16.73,18.77,18.77,0,0,0-.22,2.95l8.47-5.22.43-.26h.13V11.61ZM26,29H30.5V26.38Zm4-8.16-8.17,4.77c.19,1.95.42,3.39.42,3.39H25.6l4.9-3V20.54Zm0-5.32-8.47,4.94c0,1.68.13,3.49.28,5l8.19-5,.56-.34V15.22Z"/></g></g></svg>