<svg xmlns="http://www.w3.org/2000/svg" viewBox="0 0 142.42 14.58"><defs><style>.cls-1{fill:#fbb03b;}.cls-2{fill:#0015aa;}</style></defs><g id="Layer_2" data-name="Layer 2"><g id="Layer_1-2" data-name="Layer 1"><path class="cls-1" d="M5.89,16.93,0,3H5.06l4.8,11.77h-3L11.79,3h4.62l-5.9,13.94Z" transform="translate(0 -2.67)"/><path class="cls-1" d="M16.87,16.93V3h4.69V16.93Z" transform="translate(0 -2.67)"/><path class="cls-1" d="M29,17.24a14.48,14.48,0,0,1-3.38-.39,9.56,9.56,0,0,1-2.69-1l1.51-3.42a10,10,0,0,0,2.22.92,8.79,8.79,0,0,0,2.38.35,5,5,0,0,0,1.07-.09,1.26,1.26,0,0,0,.57-.26.57.57,0,0,0,.17-.41.64.64,0,0,0-.41-.59,4.35,4.35,0,0,0-1.11-.37l-1.5-.32a13.09,13.09,0,0,1-1.65-.45,6.06,6.06,0,0,1-1.51-.74,3.35,3.35,0,0,1-1.1-1.2,3.76,3.76,0,0,1-.42-1.86A4,4,0,0,1,23.91,5a4.86,4.86,0,0,1,2.17-1.7,8.8,8.8,0,0,1,3.59-.64,13.1,13.1,0,0,1,2.79.3,9,9,0,0,1,2.47.91L33.51,7.29a10,10,0,0,0-2-.78,7.34,7.34,0,0,0-1.88-.26,3.92,3.92,0,0,0-1.08.12,1.18,1.18,0,0,0-.56.32.63.63,0,0,0-.17.44.64.64,0,0,0,.42.57,4.22,4.22,0,0,0,1.1.34l1.51.3a13.86,13.86,0,0,1,1.65.44,6.55,6.55,0,0,1,1.5.74,3.43,3.43,0,0,1,1.11,1.19,3.75,3.75,0,0,1,.41,1.83,4.09,4.09,0,0,1-.72,2.34,5,5,0,0,1-2.16,1.72A8.84,8.84,0,0,1,29,17.24Z" transform="translate(0 -2.67)"/><path class="cls-1" d="M39.75,16.93V6.63H35.66V3H48.53V6.63H44.44v10.3Z" transform="translate(0 -2.67)"/><path class="cls-1" d="M47.53,16.93,53.62,3h4.62l6.1,13.94H59.48L55,5.22h1.83l-4.5,11.71Zm3.63-2.43,1.19-3.39h6.41L60,14.5Z" transform="translate(0 -2.67)"/><path class="cls-2" d="M75.77,16.93h-4.7V3H82.4V6.53H75.77Zm-.32-8h6.13v3.55H75.45Z" transform="translate(0 -2.67)"/><path class="cls-2" d="M91.1,17.24A9.16,9.16,0,0,1,88,16.71a7.48,7.48,0,0,1-2.5-1.53,6.94,6.94,0,0,1-1.64-2.32,7.13,7.13,0,0,1-.59-2.9,7,7,0,0,1,2.23-5.23A7.3,7.3,0,0,1,88,3.21a9.43,9.43,0,0,1,6.29,0,7.21,7.21,0,0,1,2.48,1.52A7,7,0,0,1,98.38,7,7.11,7.11,0,0,1,99,10a7.12,7.12,0,0,1-.58,2.9,6.83,6.83,0,0,1-1.65,2.32,7.39,7.39,0,0,1-2.48,1.53A9.13,9.13,0,0,1,91.1,17.24Zm0-3.8a3.05,3.05,0,0,0,1.22-.24,3.11,3.11,0,0,0,1-.68,3.28,3.28,0,0,0,.67-1.1A4.18,4.18,0,0,0,94.23,10,4.2,4.2,0,0,0,94,8.49a3.23,3.23,0,0,0-.67-1.09,3,3,0,0,0-1-.69,3.22,3.22,0,0,0-2.44,0,2.89,2.89,0,0,0-1,.69,3.08,3.08,0,0,0-.67,1.09A4.2,4.2,0,0,0,88,10a4.18,4.18,0,0,0,.24,1.46,3.13,3.13,0,0,0,.67,1.1,3,3,0,0,0,1,.68A3.05,3.05,0,0,0,91.1,13.44Z" transform="translate(0 -2.67)"/><path class="cls-2" d="M100.68,16.93V3h6.71a8.27,8.27,0,0,1,3.37.63A5,5,0,0,1,113,5.45a5,5,0,0,1,.78,2.79,4.71,4.71,0,0,1-3,4.56,8.28,8.28,0,0,1-3.37.62h-4.1l2.09-1.93v5.44Zm4.7-4.92-2.09-2.13h3.8a2.05,2.05,0,0,0,1.44-.44,1.57,1.57,0,0,0,.47-1.2,1.56,1.56,0,0,0-.47-1.19,2.05,2.05,0,0,0-1.44-.44h-3.8l2.09-2.13ZM109,16.93l-3.42-5.08h5L114,16.93Z" transform="translate(0 -2.67)"/><path class="cls-2" d="M122.74,17.24a9,9,0,0,1-3.12-.52,7.3,7.3,0,0,1-2.47-1.51,7,7,0,0,1-1.62-2.31A7.41,7.41,0,0,1,115,10a7.43,7.43,0,0,1,.58-3,6.77,6.77,0,0,1,1.64-2.31,7.27,7.27,0,0,1,2.49-1.5,9,9,0,0,1,3.18-.53,9.16,9.16,0,0,1,3.69.7,6.72,6.72,0,0,1,2.68,2l-3,2.64a4.86,4.86,0,0,0-1.43-1.14,3.7,3.7,0,0,0-1.7-.39,3.93,3.93,0,0,0-1.41.24,2.85,2.85,0,0,0-1.06.7,3.2,3.2,0,0,0-.68,1.09,4.14,4.14,0,0,0-.24,1.46,4.07,4.07,0,0,0,.24,1.42,3.29,3.29,0,0,0,.68,1.11,2.93,2.93,0,0,0,1,.7,3.44,3.44,0,0,0,1.36.25,4.56,4.56,0,0,0,1.55-.27,6.33,6.33,0,0,0,1.62-.92l2.62,3.22a10.13,10.13,0,0,1-2.9,1.32A11.94,11.94,0,0,1,122.74,17.24Zm2-2.36V9.58h4.08v5.89Z" transform="translate(0 -2.67)"/><path class="cls-2" d="M135.45,13.38h7v3.55H130.83V3h11.33V6.53h-6.71Zm-.32-5.22h6.21v3.39h-6.21Z" transform="translate(0 -2.67)"/></g></g></svg>