<svg xmlns="http://www.w3.org/2000/svg" viewBox="0 0 68.33 43.65"><g id="Layer_2" data-name="Layer 2"><g id="Layer_1-2" data-name="Layer 1"><path d="M27.89,9l-6.67,3.89,1.17,2.77,6.55-4.08ZM24.23,0H15.78l5.36,12.68,6.6-4.07ZM36.7,15.34l0-.05-.23.15-11.23,7,.37.87h7.71l1.34-3.15-2.75,1.6L34.73,20h0l1.52-3.59.34-.81-.19.12-5.85,3.41,5.92-3.66ZM35.47,0,33.3,5.18,41.7,0ZM32.94,6l-1.72,4.11L41.64,3.66,43.16.08Z"/><path d="M45.16,14l-.59.35-.53.31V19.3l.53-.33,8-4.95Zm8.61,0-9.2,5.37L44,19.7v.24h8l2.26-1.39V14Zm-.69,5.92h1.21v-.7ZM44,14v.25l.41-.25Zm2.12-4h4.76l4.73-2.92V4.5ZM52,10h3.65V7.9Zm2.08-5.92c-4.91,1.4-14.88,6.33-17.36,10.8a2.35,2.35,0,0,0-.23.53l0,0,.23-.14,7.87-4.85V10h.75l9.68-6A3.22,3.22,0,0,0,54.08,4.11ZM36.59,15.61l-.19.12a5.92,5.92,0,0,0-.15.69,16.72,16.72,0,0,0-.2,2.78l8-4.93.41-.25h.12V11ZM40.3,27.4h4.27V24.9ZM44,19.7l-7.72,4.5c.19,1.84.4,3.2.4,3.2h3.22l4.63-2.86V19.39Zm0-5-8,4.66c0,1.58.12,3.29.26,4.72L44,19.3l.53-.33v-4.6Z"/><path d="M2.83,38.94,0,32.25H2.43l2.3,5.65H3.29l2.37-5.65H7.87L5,38.94Z"/><path d="M8.09,38.94V32.25h2.26v6.69Z"/><path d="M13.93,39.1a6.66,6.66,0,0,1-1.62-.2A4.35,4.35,0,0,1,11,38.41l.72-1.65a4.47,4.47,0,0,0,1.07.45,4.18,4.18,0,0,0,1.14.16,2.39,2.39,0,0,0,.51,0,.68.68,0,0,0,.27-.12.27.27,0,0,0,.09-.2.32.32,0,0,0-.2-.28,2.33,2.33,0,0,0-.53-.18l-.72-.15a7.1,7.1,0,0,1-.79-.22,3.29,3.29,0,0,1-.73-.35,1.64,1.64,0,0,1-.53-.58,1.86,1.86,0,0,1-.2-.89,2,2,0,0,1,.35-1.14,2.34,2.34,0,0,1,1-.81,4.17,4.17,0,0,1,1.72-.31,6,6,0,0,1,1.34.15,4.3,4.3,0,0,1,1.19.43l-.68,1.64a4.6,4.6,0,0,0-1-.37,3.21,3.21,0,0,0-.9-.13,1.81,1.81,0,0,0-.52.06.56.56,0,0,0-.27.15.31.31,0,0,0-.08.21.28.28,0,0,0,.2.27,1.83,1.83,0,0,0,.53.17l.72.14a7.1,7.1,0,0,1,.79.22,2.67,2.67,0,0,1,.72.35A1.62,1.62,0,0,1,17,36.84,1.88,1.88,0,0,1,16.69,38a2.41,2.41,0,0,1-1,.83A4.35,4.35,0,0,1,13.93,39.1Z"/><path d="M19.07,38.94V34h-2V32.25h6.17V34h-2v4.94Z"/><path d="M22.8,38.94l2.93-6.69h2.21l2.93,6.69H28.54l-2.16-5.62h.88L25.1,38.94Zm1.74-1.16.58-1.63h3.07l.58,1.63Z"/><path d="M36.35,38.94H34.1V32.25h5.43V34H36.35ZM36.2,35.1h2.94v1.7H36.2Z"/><path d="M43.71,39.1a4.35,4.35,0,0,1-1.51-.26,3.65,3.65,0,0,1-1.2-.73,3.49,3.49,0,0,1-.78-3.91A3.44,3.44,0,0,1,41,33.09a3.65,3.65,0,0,1,1.2-.73,4.51,4.51,0,0,1,3,0,3.6,3.6,0,0,1,1.19.73,3.47,3.47,0,0,1,.79,1.11,3.62,3.62,0,0,1,0,2.79,3.4,3.4,0,0,1-.79,1.12,3.6,3.6,0,0,1-1.19.73A4.31,4.31,0,0,1,43.71,39.1Zm0-1.83a1.58,1.58,0,0,0,.58-.11,1.37,1.37,0,0,0,.48-.33,1.42,1.42,0,0,0,.32-.53,1.94,1.94,0,0,0,.12-.7,1.9,1.9,0,0,0-.12-.7,1.35,1.35,0,0,0-.32-.53,1.37,1.37,0,0,0-.48-.33,1.4,1.4,0,0,0-.58-.11,1.44,1.44,0,0,0-.59.11,1.58,1.58,0,0,0-.48.33,1.63,1.63,0,0,0-.32.53,2.14,2.14,0,0,0-.11.7,2.19,2.19,0,0,0,.11.7,1.74,1.74,0,0,0,.32.53,1.58,1.58,0,0,0,.48.33A1.63,1.63,0,0,0,43.71,37.27Z"/><path d="M48.3,38.94V32.25h3.22a4,4,0,0,1,1.62.31,2.29,2.29,0,0,1,1.43,2.22A2.23,2.23,0,0,1,53.14,37a4,4,0,0,1-1.62.3h-2l1-.93v2.61Zm2.26-2.36-1-1h1.83a1,1,0,0,0,.69-.21.75.75,0,0,0,.23-.57.77.77,0,0,0-.23-.58,1,1,0,0,0-.69-.21H49.55l1-1Zm1.75,2.36-1.65-2.43h2.39l1.66,2.43Z"/><path d="M58.89,39.1a4.3,4.3,0,0,1-1.5-.26,3.53,3.53,0,0,1-1.18-.72A3.11,3.11,0,0,1,55.43,37a3.38,3.38,0,0,1-.28-1.41,3.46,3.46,0,0,1,.28-1.42,3.35,3.35,0,0,1,2-1.82,4.38,4.38,0,0,1,1.53-.26,4.33,4.33,0,0,1,1.77.34,3.24,3.24,0,0,1,1.28,1l-1.44,1.27a2.46,2.46,0,0,0-.68-.55,1.86,1.86,0,0,0-.82-.18,1.78,1.78,0,0,0-.67.11,1.39,1.39,0,0,0-.51.34,1.54,1.54,0,0,0-.33.52,1.94,1.94,0,0,0-.11.7,1.87,1.87,0,0,0,.11.68,1.49,1.49,0,0,0,.33.53,1.35,1.35,0,0,0,.5.34,1.67,1.67,0,0,0,.65.12,2.15,2.15,0,0,0,.75-.13,2.68,2.68,0,0,0,.77-.44l1.26,1.55a4.75,4.75,0,0,1-1.39.62A5.56,5.56,0,0,1,58.89,39.1Zm1-1.14V35.42h2v2.83Z"/><path d="M65,37.24h3.35v1.7H62.77V32.25H68.2V34H65Zm-.15-2.5h3v1.62h-3Z"/><path d="M5.48,43a2,2,0,0,1-.59-.09,1.18,1.18,0,0,1-.45-.21l.2-.45a1.24,1.24,0,0,0,.38.2,1.47,1.47,0,0,0,.46.07.72.72,0,0,0,.28,0,.27.27,0,0,0,.16-.09.22.22,0,0,0,0-.31A.51.51,0,0,0,5.68,42l-.29-.08-.32-.08-.29-.13a.63.63,0,0,1-.21-.22.67.67,0,0,1-.08-.33.7.7,0,0,1,.12-.4A.78.78,0,0,1,5,40.42a1.5,1.5,0,0,1,.6-.11,1.91,1.91,0,0,1,.48.06,1.18,1.18,0,0,1,.41.17L6.27,41l-.36-.15a1.45,1.45,0,0,0-.35,0,1,1,0,0,0-.28,0,.38.38,0,0,0-.16.11.24.24,0,0,0,0,.14.2.2,0,0,0,.09.17.51.51,0,0,0,.21.09l.29.07.32.09a1.51,1.51,0,0,1,.29.13.6.6,0,0,1,.21.21.58.58,0,0,1,.08.33.7.7,0,0,1-.12.4.89.89,0,0,1-.36.29A1.5,1.5,0,0,1,5.48,43Z"/><path d="M8.12,40.92a.93.93,0,0,1,.42.09.71.71,0,0,1,.29.28,1.06,1.06,0,0,1,.11.5v1.12H8.37v-1a.51.51,0,0,0-.11-.35A.38.38,0,0,0,8,41.41a.48.48,0,0,0-.24.06.35.35,0,0,0-.17.17.64.64,0,0,0-.06.3v1H6.93V40.2H7.5v1.29l-.13-.16a.69.69,0,0,1,.3-.31A.93.93,0,0,1,8.12,40.92Z"/><path d="M10.06,42.94a.93.93,0,0,1-.39-.08.61.61,0,0,1-.26-.21.52.52,0,0,1-.08-.3A.53.53,0,0,1,9.41,42a.58.58,0,0,1,.27-.21,1.64,1.64,0,0,1,.49-.07h.52v.33h-.46a.38.38,0,0,0-.27.07.19.19,0,0,0-.08.16.2.2,0,0,0,.09.17.32.32,0,0,0,.23.07.46.46,0,0,0,.26-.07.32.32,0,0,0,.16-.2l.09.27a.53.53,0,0,1-.23.28A.77.77,0,0,1,10.06,42.94Zm.6,0v-.38l0-.09v-.68a.35.35,0,0,0-.11-.29.48.48,0,0,0-.34-.1,1.06,1.06,0,0,0-.31.05.9.9,0,0,0-.26.13l-.2-.4A1.28,1.28,0,0,1,9.79,41a1.76,1.76,0,0,1,.46-.06,1,1,0,0,1,.69.21.8.8,0,0,1,.25.66v1.12Z"/><path d="M11.71,43.62V41h.54v1l0,.58v1.11Zm1.16-.68a.83.83,0,0,1-.43-.11.69.69,0,0,1-.3-.33,1.53,1.53,0,0,1-.1-.57,1.35,1.35,0,0,1,.1-.57.67.67,0,0,1,.29-.33.78.78,0,0,1,.44-.11,1.06,1.06,0,0,1,.5.12,1,1,0,0,1,.35.35,1.05,1.05,0,0,1,.13.54,1,1,0,0,1-.13.53.91.91,0,0,1-.35.35A1,1,0,0,1,12.87,42.94Zm-.1-.47a.55.55,0,0,0,.26-.06.52.52,0,0,0,.17-.19.54.54,0,0,0,.07-.29.52.52,0,0,0-.07-.29.45.45,0,0,0-.17-.19.55.55,0,0,0-.26-.06.51.51,0,0,0-.25.06.5.5,0,0,0-.19.19.62.62,0,0,0-.06.29.65.65,0,0,0,.06.29.58.58,0,0,0,.19.19A.51.51,0,0,0,12.77,42.47Z"/><path d="M14.52,40.67a.36.36,0,0,1-.26-.09.29.29,0,0,1-.1-.23.27.27,0,0,1,.1-.22.36.36,0,0,1,.26-.09.34.34,0,0,1,.25.08.27.27,0,0,1,.1.22.3.3,0,0,1-.1.24A.35.35,0,0,1,14.52,40.67Zm-.29,2.24V41h.57v2Z"/><path d="M16.52,40.92a.93.93,0,0,1,.42.09.65.65,0,0,1,.29.28,1.06,1.06,0,0,1,.11.5v1.12h-.57v-1a.56.56,0,0,0-.1-.35.41.41,0,0,0-.3-.11.48.48,0,0,0-.24.06.4.4,0,0,0-.17.17.64.64,0,0,0-.06.3v1h-.57V41h.54v.54l-.1-.16a.67.67,0,0,1,.31-.31A.92.92,0,0,1,16.52,40.92Z"/><path d="M18.7,42.82a1,1,0,0,1-.49-.12.9.9,0,0,1-.48-.83.94.94,0,0,1,.13-.51.93.93,0,0,1,.35-.33,1.14,1.14,0,0,1,.49-.11.93.93,0,0,1,.45.1.67.67,0,0,1,.29.31,1.2,1.2,0,0,1,.11.54,1.19,1.19,0,0,1-.11.53.67.67,0,0,1-.29.31A.94.94,0,0,1,18.7,42.82Zm.09.83a1.88,1.88,0,0,1-.53-.07,1.07,1.07,0,0,1-.43-.2l.23-.41a.91.91,0,0,0,.31.16,1.26,1.26,0,0,0,.38.06.61.61,0,0,0,.44-.13.52.52,0,0,0,.14-.4v-.3l0-.49V41h.54v1.63a1.05,1.05,0,0,1-.29.81A1.19,1.19,0,0,1,18.79,43.65Zm0-1.3a.6.6,0,0,0,.27-.06.49.49,0,0,0,.18-.17.54.54,0,0,0,.06-.25.53.53,0,0,0-.06-.26.4.4,0,0,0-.18-.16.64.64,0,0,0-.54,0,.4.4,0,0,0-.18.16.44.44,0,0,0-.07.26.45.45,0,0,0,.07.25.49.49,0,0,0,.18.17A.6.6,0,0,0,18.82,42.35Z"/><path d="M21.5,42.91V40.35h.6v2.56Z"/><path d="M23.51,42.94a1,1,0,0,1-.86-.48,1.12,1.12,0,0,1-.12-.53,1.16,1.16,0,0,1,.12-.54.93.93,0,0,1,.86-.47.77.77,0,0,1,.43.11.73.73,0,0,1,.29.33,1.67,1.67,0,0,1,0,1.14.66.66,0,0,1-.28.33A.87.87,0,0,1,23.51,42.94Zm.09-.47a.46.46,0,0,0,.44-.25.65.65,0,0,0,.06-.29.62.62,0,0,0-.06-.29.46.46,0,0,0-.44-.25.51.51,0,0,0-.25.06.41.41,0,0,0-.18.19.52.52,0,0,0-.07.29.54.54,0,0,0,.07.29.41.41,0,0,0,.18.19A.51.51,0,0,0,23.6,42.47Zm.52.44v-1l0-.58V40.2h.57v2.71Z"/><path d="M26.17,42.94a1.22,1.22,0,0,1-.59-.13,1,1,0,0,1-.39-.36.92.92,0,0,1-.14-.52,1,1,0,0,1,.13-.52.86.86,0,0,1,.37-.36,1.19,1.19,0,0,1,1.06,0,.89.89,0,0,1,.37.35,1,1,0,0,1,.14.55s0,0,0,.07v.08H25.51v-.33h1.3l-.23.1a.45.45,0,0,0-.06-.27.37.37,0,0,0-.17-.18.51.51,0,0,0-.25-.06.53.53,0,0,0-.26.06.37.37,0,0,0-.17.18.5.5,0,0,0-.07.27V42a.55.55,0,0,0,.08.29.39.39,0,0,0,.2.18.67.67,0,0,0,.3.06.79.79,0,0,0,.28,0,.62.62,0,0,0,.21-.15l.31.33a1,1,0,0,1-.34.24A1.4,1.4,0,0,1,26.17,42.94Z"/><path d="M28.05,42.94a.93.93,0,0,1-.39-.08.61.61,0,0,1-.26-.21.53.53,0,0,1-.09-.3A.54.54,0,0,1,27.4,42a.58.58,0,0,1,.27-.21,1.64,1.64,0,0,1,.49-.07h.52v.33h-.46a.41.41,0,0,0-.28.07.19.19,0,0,0-.07.16.2.2,0,0,0,.09.17.32.32,0,0,0,.23.07.48.48,0,0,0,.26-.07.36.36,0,0,0,.16-.2l.09.27a.53.53,0,0,1-.23.28A.77.77,0,0,1,28.05,42.94Zm.6,0v-.38l0-.09v-.68a.38.38,0,0,0-.11-.29.49.49,0,0,0-.34-.1,1.06,1.06,0,0,0-.31.05.9.9,0,0,0-.26.13l-.2-.4a1.21,1.21,0,0,1,.38-.17,1.82,1.82,0,0,1,.46-.06,1,1,0,0,1,.7.21.8.8,0,0,1,.25.66v1.12Z"/><path d="M30.36,42.94a1.86,1.86,0,0,1-.48-.06,1.18,1.18,0,0,1-.37-.15l.18-.41a1.42,1.42,0,0,0,.33.14,1.49,1.49,0,0,0,.36,0,.63.63,0,0,0,.28,0,.14.14,0,0,0,.08-.13.1.1,0,0,0-.06-.1.67.67,0,0,0-.17-.06l-.23,0-.26,0-.23-.1a.44.44,0,0,1-.17-.16.58.58,0,0,1-.07-.28.57.57,0,0,1,.11-.33A.7.7,0,0,1,30,41a1.23,1.23,0,0,1,.49-.08,1.9,1.9,0,0,1,.41,0,1.11,1.11,0,0,1,.35.13l-.19.4a1.15,1.15,0,0,0-.29-.11,1.24,1.24,0,0,0-.27,0,.56.56,0,0,0-.29,0,.15.15,0,0,0-.09.13.12.12,0,0,0,.07.11.38.38,0,0,0,.17.06l.24,0a2.27,2.27,0,0,1,.25.06.92.92,0,0,1,.23.09.44.44,0,0,1,.17.16.61.61,0,0,1,.07.28.54.54,0,0,1-.11.32.76.76,0,0,1-.32.22A1.46,1.46,0,0,1,30.36,42.94Z"/><path d="M31.85,42.94a.34.34,0,0,1-.35-.35.33.33,0,0,1,.1-.26.33.33,0,0,1,.25-.1.32.32,0,0,1,.25.1.33.33,0,0,1,.11.26.34.34,0,0,1-.11.25A.32.32,0,0,1,31.85,42.94Z"/><path d="M33.67,42.91V40.35h1.25a1.13,1.13,0,0,1,.72.19.56.56,0,0,1,.25.48.68.68,0,0,1-.1.35.75.75,0,0,1-.27.23,1,1,0,0,1-.4.08l.07-.16a1.14,1.14,0,0,1,.43.08.68.68,0,0,1,.29.24.62.62,0,0,1,.1.37.61.61,0,0,1-.25.52,1.37,1.37,0,0,1-.77.18Zm.59-.44H35a.67.67,0,0,0,.35-.08.3.3,0,0,0,0-.48.67.67,0,0,0-.35-.08h-.74V41.4h.64a.62.62,0,0,0,.33-.07.3.3,0,0,0,0-.46.62.62,0,0,0-.33-.07h-.59Z"/><path d="M37.25,42.94a1,1,0,0,1-.43-.09.67.67,0,0,1-.3-.3,1,1,0,0,1-.11-.49V41H37v1a.52.52,0,0,0,.11.36.36.36,0,0,0,.29.12.41.41,0,0,0,.4-.24.6.6,0,0,0,.06-.29V41h.57v2h-.55v-.54l.1.16a.72.72,0,0,1-.29.31A.87.87,0,0,1,37.25,42.94Z"/><path d="M39.22,40.67a.37.37,0,0,1-.26-.09.33.33,0,0,1-.1-.23.3.3,0,0,1,.1-.22.37.37,0,0,1,.26-.09.38.38,0,0,1,.26.08.3.3,0,0,1,.1.22.3.3,0,0,1-.1.24A.37.37,0,0,1,39.22,40.67Zm-.28,2.24V41h.57v2Z"/><path d="M40,42.91V40.2h.57v2.71Z"/><path d="M42,42.94a.93.93,0,0,1-.5-.13.84.84,0,0,1-.35-.35,1,1,0,0,1-.13-.53,1.05,1.05,0,0,1,.13-.54.91.91,0,0,1,.35-.35,1,1,0,0,1,.5-.12.75.75,0,0,1,.43.11.67.67,0,0,1,.29.33,1.35,1.35,0,0,1,.11.57,1.53,1.53,0,0,1-.1.57.67.67,0,0,1-.29.33A.87.87,0,0,1,42,42.94Zm.09-.47a.55.55,0,0,0,.26-.06.41.41,0,0,0,.18-.19.54.54,0,0,0,.07-.29.52.52,0,0,0-.07-.29.41.41,0,0,0-.18-.19.55.55,0,0,0-.26-.06.54.54,0,0,0-.25.06.55.55,0,0,0-.18.19.62.62,0,0,0-.07.29.65.65,0,0,0,.07.29.55.55,0,0,0,.18.19A.54.54,0,0,0,42.07,42.47Zm.52.44v-1l0-.58V40.2h.57v2.71Z"/><path d="M44,40.67a.37.37,0,0,1-.26-.09.29.29,0,0,1-.1-.23.27.27,0,0,1,.1-.22A.37.37,0,0,1,44,40a.38.38,0,0,1,.26.08.3.3,0,0,1,.1.22.33.33,0,0,1-.1.24A.37.37,0,0,1,44,40.67Zm-.29,2.24V41h.57v2Z"/><path d="M46,40.92a1,1,0,0,1,.42.09.71.71,0,0,1,.29.28,1.06,1.06,0,0,1,.1.5v1.12H46.2v-1a.5.5,0,0,0-.1-.35.4.4,0,0,0-.29-.11.51.51,0,0,0-.25.06.4.4,0,0,0-.17.17.64.64,0,0,0-.06.3v1h-.57V41h.55v.54l-.1-.16a.69.69,0,0,1,.3-.31A.93.93,0,0,1,46,40.92Z"/><path d="M48.14,42.82a1,1,0,0,1-.49-.12,1,1,0,0,1-.36-.33,1,1,0,0,1,0-1,1,1,0,0,1,.36-.33,1.14,1.14,0,0,1,.49-.11.87.87,0,0,1,.44.1.65.65,0,0,1,.3.31,1.21,1.21,0,0,1,.1.54,1.19,1.19,0,0,1-.1.53.65.65,0,0,1-.3.31A.87.87,0,0,1,48.14,42.82Zm.09.83a2,2,0,0,1-.54-.07,1.14,1.14,0,0,1-.43-.2l.23-.41a1,1,0,0,0,.32.16,1.21,1.21,0,0,0,.38.06.63.63,0,0,0,.44-.13.56.56,0,0,0,.14-.4v-.3l0-.49V41h.54v1.63a1,1,0,0,1-.28.81A1.2,1.2,0,0,1,48.23,43.65Zm0-1.3a.6.6,0,0,0,.27-.06.42.42,0,0,0,.18-.17.45.45,0,0,0,.07-.25.44.44,0,0,0-.07-.26.35.35,0,0,0-.18-.16.6.6,0,0,0-.27-.06.58.58,0,0,0-.26.06.42.42,0,0,0-.19.16.53.53,0,0,0-.06.26.54.54,0,0,0,.06.25.52.52,0,0,0,.19.17A.58.58,0,0,0,48.25,42.35Z"/><path d="M51.53,42.91h-.59V40.35h1.93v.48H51.53Zm-.05-1.41h1.23V42H51.48Z"/><path d="M54,42.94a1,1,0,0,1-.44-.09.65.65,0,0,1-.29-.3,1,1,0,0,1-.11-.49V41h.57v1a.52.52,0,0,0,.1.36.38.38,0,0,0,.3.12.44.44,0,0,0,.23-.06.4.4,0,0,0,.16-.18.59.59,0,0,0,.07-.29V41h.56v2h-.54v-.54l.1.16a.79.79,0,0,1-.29.31A.87.87,0,0,1,54,42.94Z"/><path d="M55.46,41.43V41h1.36v.44Zm1,1.51a.78.78,0,0,1-.55-.18.69.69,0,0,1-.19-.52V40.51h.57v1.71a.3.3,0,0,0,.07.2.24.24,0,0,0,.17.07.41.41,0,0,0,.24-.08l.15.41a.67.67,0,0,1-.21.09A1.07,1.07,0,0,1,56.5,42.94Z"/><path d="M58.11,42.94a1,1,0,0,1-.44-.09.7.7,0,0,1-.29-.3,1,1,0,0,1-.11-.49V41h.57v1a.57.57,0,0,0,.1.36.38.38,0,0,0,.3.12.44.44,0,0,0,.23-.06.42.42,0,0,0,.17-.18.6.6,0,0,0,.06-.29V41h.56v2h-.54v-.54l.1.16a.79.79,0,0,1-.29.31A.87.87,0,0,1,58.11,42.94Z"/><path d="M59.79,42.91V41h.55v.55l-.08-.16a.67.67,0,0,1,.28-.32,1,1,0,0,1,.47-.1v.53h-.12a.49.49,0,0,0-.53.55v.93Z"/><path d="M62.31,42.94a1.25,1.25,0,0,1-.59-.13,1,1,0,0,1-.39-.36,1,1,0,0,1-.14-.52,1,1,0,0,1,.14-.52.81.81,0,0,1,.37-.36,1.08,1.08,0,0,1,.54-.13,1.14,1.14,0,0,1,.52.12.87.87,0,0,1,.36.35,1,1,0,0,1,.14.55v.15h-1.6v-.33H63l-.22.1a.54.54,0,0,0-.06-.27.42.42,0,0,0-.17-.18.59.59,0,0,0-.52,0,.42.42,0,0,0-.17.18.6.6,0,0,0-.06.27V42a.54.54,0,0,0,.07.29.49.49,0,0,0,.2.18.75.75,0,0,0,.31.06.77.77,0,0,0,.27,0,.78.78,0,0,0,.22-.15l.3.33a1,1,0,0,1-.34.24A1.32,1.32,0,0,1,62.31,42.94Z"/><path d="M64.3,42.94a1.86,1.86,0,0,1-.48-.06,1.29,1.29,0,0,1-.37-.15l.19-.41a1.34,1.34,0,0,0,.32.14,1.49,1.49,0,0,0,.36,0,.58.58,0,0,0,.28,0,.14.14,0,0,0,.09-.13.11.11,0,0,0-.07-.1.56.56,0,0,0-.17-.06l-.23,0-.25,0-.24-.1a.44.44,0,0,1-.17-.16.58.58,0,0,1-.06-.28.51.51,0,0,1,.11-.33.61.61,0,0,1,.31-.22,1.15,1.15,0,0,1,.48-.08,2,2,0,0,1,.42,0,1,1,0,0,1,.34.13l-.19.4a1.08,1.08,0,0,0-.28-.11l-.28,0a.52.52,0,0,0-.28,0,.15.15,0,0,0-.09.13.11.11,0,0,0,.06.11.48.48,0,0,0,.18.06l.23,0a1.83,1.83,0,0,1,.25.06.79.79,0,0,1,.23.09.46.46,0,0,1,.18.16.61.61,0,0,1,.06.28.54.54,0,0,1-.11.32.7.7,0,0,1-.32.22A1.41,1.41,0,0,1,64.3,42.94Z"/></g></g></svg>