<svg xmlns="http://www.w3.org/2000/svg" viewBox="0 0 39.87 27.4"><defs><style>.cls-1{fill:#fff;}</style></defs><g id="Layer_2" data-name="Layer 2"><g id="Layer_1-2" data-name="Layer 1"><path class="cls-1" d="M12.11,9,5.44,12.87l1.17,2.77,6.56-4.08ZM8.45,0H0L5.36,12.68,12,8.61ZM20.93,15.34l0-.05-.24.15-11.23,7,.37.87h7.72l1.33-3.15-2.75,1.6L19,20h0l1.52-3.59.34-.81-.19.12-5.85,3.41,5.93-3.66ZM19.7,0,17.52,5.18,25.92,0ZM17.16,6l-1.72,4.11L25.87,3.66,27.38.08Z"/><path class="cls-1" d="M29.38,14l-.59.35-.53.31V19.3l.53-.33,8-4.95ZM38,14l-9.21,5.37-.53.31v.24h8l2.26-1.39V14Zm-.7,5.92h1.21v-.7Zm-9-5.92v.25l.41-.25Zm2.12-4h4.76l4.73-2.92V4.5Zm5.85,0h3.64V7.9Zm2.08-5.92c-4.92,1.4-14.88,6.33-17.37,10.8a3.82,3.82,0,0,0-.23.53.08.08,0,0,0,0,0l.23-.14,7.86-4.85V10h.75l9.68-6A3.14,3.14,0,0,0,38.31,4.11Zm-17.5,11.5-.19.12a5.92,5.92,0,0,0-.15.69,16.72,16.72,0,0,0-.2,2.78l8-4.93.41-.25h.12V11ZM24.52,27.4h4.27V24.9Zm3.74-7.7-7.72,4.5c.19,1.84.4,3.2.4,3.2h3.22l4.63-2.86V19.39Zm0-5-8,4.66c0,1.58.12,3.29.26,4.72l7.73-4.76.53-.33v-4.6Z"/></g></g></svg>