<svg xmlns="http://www.w3.org/2000/svg" viewBox="0 0 83.11 57.11"><defs><style>.cls-1{fill:#0015aa;}.cls-2{fill:#fbb03b;}</style></defs><g id="Layer_2" data-name="Layer 2"><g id="Layer_1-2" data-name="Layer 1"><path class="cls-1" d="M25.25,18.72,11.34,26.83l2.44,5.76L27.44,24.1ZM17.61,0H0L11.17,26.42l13.76-8.48Zm26,32,0-.1-.49.3L19.77,46.74l.76,1.8H36.61L39.39,42l-5.72,3.34,5.83-3.59h0l3.17-7.49.71-1.67-.4.23-12.2,7.11,12.36-7.61ZM41.05,0,36.53,10.79,54,0ZM35.77,12.58l-3.59,8.57L53.91,7.64,57.07.16Z"/><path class="cls-2" d="M61.24,29.23,60,29.94l-1.11.65v9.63L60,39.54,76.74,29.23Zm18,0L60,40.41l-1.11.65v.51H75.56l4.71-2.9V29.23ZM77.74,41.57h2.53V40.1ZM58.91,29.23v.52l.85-.52Zm4.42-8.32h9.92l9.86-6.08V9.37Zm12.18,0h7.6V16.48ZM79.84,8.56c-10.24,2.93-31,13.19-36.19,22.51a6.73,6.73,0,0,0-.48,1.11.38.38,0,0,0,0,.1l.48-.3L60,21.87v-1h1.56L81.74,8.47A8.22,8.22,0,0,0,79.84,8.56Zm-36.46,24-.4.23c-.12.44-.22.93-.31,1.44a36.19,36.19,0,0,0-.42,5.8L58.91,29.75l.85-.52H60V22.84ZM51.1,57.11H60v-5.2Zm7.81-16L42.82,50.44c.39,3.84.83,6.67.83,6.67h6.71l9.66-6V40.41Zm0-10.47L42.25,40.31c0,3.3.25,6.86.54,9.84l16.12-9.93L60,39.54v-9.6Z"/></g></g></svg>