<svg xmlns="http://www.w3.org/2000/svg" viewBox="0 0 142.42 98.23"><defs><style>.cls-1{fill:#0015aa;}.cls-2{fill:#fbb03b;}.cls-3{font-size:7.62px;font-family:Poppins-Bold, Poppins;font-weight:700;}</style></defs><g id="Layer_2" data-name="Layer 2"><g id="Layer_1-2" data-name="Layer 1"><path class="cls-1" d="M58.13,18.72l-13.9,8.11,2.44,5.76L60.33,24.1ZM50.5,0H32.88L44.06,26.42l13.75-8.48Zm26,32,0-.1-.5.3L52.65,46.74l.76,1.8H69.5L72.27,42l-5.72,3.34,5.84-3.59h0l3.16-7.49.71-1.67-.39.23-12.2,7.11L76,32.28ZM73.94,0,69.41,10.79,86.91,0ZM68.66,12.58l-3.6,8.57L86.8,7.64,90,.16Z"/><path class="cls-2" d="M94.13,29.23l-1.23.71-1.11.65v9.63l1.11-.68,16.73-10.31Zm18,0L92.9,40.41l-1.11.65v.51h16.65l4.71-2.9V29.23Zm-1.45,12.34h2.52V40.1ZM91.79,29.23v.52l.85-.52Zm4.42-8.32h9.92L116,14.83V9.37Zm12.18,0H116V16.48Zm4.34-12.35c-10.25,2.93-31,13.19-36.2,22.51a6.73,6.73,0,0,0-.48,1.11l0,.1.48-.3L92.9,21.87v-1h1.56L114.63,8.47A8.18,8.18,0,0,0,112.73,8.56Zm-36.47,24-.39.23c-.12.44-.23.93-.32,1.44a36.19,36.19,0,0,0-.42,5.8L91.79,29.75l.85-.52h.26V22.84ZM84,57.11H92.9v-5.2Zm7.8-16L75.71,50.44c.38,3.84.82,6.67.82,6.67h6.71l9.66-6V40.41Zm0-10.47L75.13,40.31c0,3.3.26,6.86.55,9.84l16.11-9.93,1.11-.68v-9.6Z"/><path class="cls-2" d="M5.89,81.17,0,67.23H5.06L9.86,79h-3l4.94-11.77h4.62l-5.9,13.94Z"/><path class="cls-2" d="M16.87,81.17V67.23h4.69V81.17Z"/><path class="cls-2" d="M29,81.48a14.48,14.48,0,0,1-3.38-.39,9.56,9.56,0,0,1-2.69-1l1.51-3.42a10,10,0,0,0,2.22.92,8.79,8.79,0,0,0,2.38.35,5,5,0,0,0,1.07-.09,1.17,1.17,0,0,0,.57-.26.57.57,0,0,0,.17-.41.64.64,0,0,0-.41-.59,4.35,4.35,0,0,0-1.11-.37l-1.5-.32a13.09,13.09,0,0,1-1.65-.45,6.06,6.06,0,0,1-1.51-.74,3.35,3.35,0,0,1-1.1-1.2,3.76,3.76,0,0,1-.42-1.86,4.07,4.07,0,0,1,.73-2.36,4.86,4.86,0,0,1,2.17-1.7,8.8,8.8,0,0,1,3.59-.64,13.1,13.1,0,0,1,2.79.3,9,9,0,0,1,2.47.91l-1.42,3.41a10,10,0,0,0-2-.78,7.34,7.34,0,0,0-1.88-.26,3.92,3.92,0,0,0-1.08.12,1.18,1.18,0,0,0-.56.32.63.63,0,0,0-.17.44.64.64,0,0,0,.42.57,4.6,4.6,0,0,0,1.1.35l1.51.29A13.86,13.86,0,0,1,32.5,73a6.55,6.55,0,0,1,1.5.74A3.43,3.43,0,0,1,35.11,75a3.79,3.79,0,0,1,.41,1.84,4.06,4.06,0,0,1-.72,2.33,5,5,0,0,1-2.16,1.72A8.84,8.84,0,0,1,29,81.48Z"/><path class="cls-2" d="M39.75,81.17V70.87H35.66V67.23H48.53v3.64H44.44v10.3Z"/><path class="cls-2" d="M47.53,81.17l6.09-13.94h4.62l6.1,13.94H59.48L55,69.46h1.83l-4.5,11.71Zm3.63-2.43,1.19-3.39h6.41L60,78.74Z"/><path class="cls-1" d="M75.77,81.17h-4.7V67.23H82.4v3.54H75.77Zm-.32-8h6.13v3.55H75.45Z"/><path class="cls-1" d="M91.1,81.48A8.92,8.92,0,0,1,88,81a7.48,7.48,0,0,1-2.5-1.53,6.94,6.94,0,0,1-1.64-2.32A7.16,7.16,0,0,1,85.46,69,7.3,7.3,0,0,1,88,67.45a9.43,9.43,0,0,1,6.29,0A7.21,7.21,0,0,1,96.73,69a7,7,0,0,1,1.65,2.31,7.59,7.59,0,0,1,0,5.82,6.83,6.83,0,0,1-1.65,2.32A7.39,7.39,0,0,1,94.25,81,8.9,8.9,0,0,1,91.1,81.48Zm0-3.8a3.05,3.05,0,0,0,1.22-.24,3.11,3.11,0,0,0,1-.68,3.28,3.28,0,0,0,.67-1.1,4.59,4.59,0,0,0,0-2.93,3.23,3.23,0,0,0-.67-1.09,3,3,0,0,0-1-.69,3.22,3.22,0,0,0-2.44,0,2.89,2.89,0,0,0-1,.69,3.08,3.08,0,0,0-.67,1.09,4.59,4.59,0,0,0,0,2.93,3.13,3.13,0,0,0,.67,1.1,3,3,0,0,0,1,.68A3.05,3.05,0,0,0,91.1,77.68Z"/><path class="cls-1" d="M100.68,81.17V67.23h6.71a8.27,8.27,0,0,1,3.37.63,4.84,4.84,0,0,1,3,4.62,4.71,4.71,0,0,1-3,4.56,8.28,8.28,0,0,1-3.37.62h-4.1l2.09-1.93v5.44Zm4.7-4.92-2.09-2.13h3.8a2.05,2.05,0,0,0,1.44-.44,1.75,1.75,0,0,0,0-2.39,2.05,2.05,0,0,0-1.44-.44h-3.8l2.09-2.13ZM109,81.17l-3.42-5.08h5L114,81.17Z"/><path class="cls-1" d="M122.74,81.48a9,9,0,0,1-3.12-.52,7.3,7.3,0,0,1-2.47-1.51,7,7,0,0,1-1.62-2.31,7.77,7.77,0,0,1,0-5.89,6.77,6.77,0,0,1,1.64-2.31,7.27,7.27,0,0,1,2.49-1.5,9,9,0,0,1,3.18-.53,9.16,9.16,0,0,1,3.69.7,6.72,6.72,0,0,1,2.68,2l-3,2.65a4.74,4.74,0,0,0-1.43-1.15,3.7,3.7,0,0,0-1.7-.39,3.93,3.93,0,0,0-1.41.24,2.85,2.85,0,0,0-1.06.7,3.2,3.2,0,0,0-.68,1.09,4.14,4.14,0,0,0-.24,1.46,4.07,4.07,0,0,0,.24,1.42,3.29,3.29,0,0,0,.68,1.11,2.93,2.93,0,0,0,1,.7,3.44,3.44,0,0,0,1.36.25,4.56,4.56,0,0,0,1.55-.27,6.33,6.33,0,0,0,1.62-.92l2.62,3.22a10.13,10.13,0,0,1-2.9,1.32A11.94,11.94,0,0,1,122.74,81.48Zm2-2.36v-5.3h4.08v5.89Z"/><path class="cls-1" d="M135.45,77.62h7v3.55H130.83V67.23h11.33v3.54h-6.71Zm-.32-5.22h6.21v3.39h-6.21Z"/><text class="cls-3" transform="translate(15.54 93.61)">Shaping Ideas. Building Futures</text></g></g></svg>